<svg width="56" height="56" viewBox="0 0 27 21" fill="none" xmlns="http://www.w3.org/2000/svg">
<path d="M18.4066 11.206C18.4066 10.4448 19.0156 9.83582 19.7769 9.83582C20.5382 9.83582 21.1472 10.4448 21.1472 11.206C21.1472 11.9671 20.5382 12.5761 19.7769 12.5761C19.0156 12.5761 18.4066 11.9418 18.4066 11.206Z" fill="white"/>
<path d="M26.6792 14.5301C26.6284 14.9614 26.5777 15.3928 26.4508 15.7987C26.0702 17.245 25.2328 18.5644 23.8625 19.3002C21.9847 20.2644 19.7516 19.9092 17.8738 19.1733C16.3259 20.2644 16.3259 20.2644 16.3259 20.2644C15.9707 20.4927 15.5139 20.1121 15.7169 19.7315C15.2855 19.8077 15.1586 19.4017 15.2855 19.0718C14.9303 19.3509 14.6258 18.8435 14.8288 18.539C14.9556 18.336 15.1586 18.1077 15.3109 17.9301C13.1286 16.6868 11.1493 15.1644 9.14461 13.6674C10.2865 14.3778 14.8541 16.7122 15.9707 17.1942C17.1379 17.7017 18.3052 18.2092 19.5232 18.4883C20.5383 18.7166 21.8324 18.8435 22.7713 18.2599C23.6341 17.7524 23.964 16.7122 24.0909 15.7734C24.3954 13.7435 23.6849 11.4599 22.6191 9.73458C21.5025 7.93309 19.6755 6.30922 17.5947 5.77638C16.8334 5.5734 16.0722 5.5734 15.3616 5.70026C13.7122 5.97937 12.2151 6.99429 11.0732 8.26294C9.42374 10.0898 8.28184 12.348 7.24144 14.5808C6.53092 16.0778 5.54127 19.7315 3.20671 18.2853C2.16631 17.6256 1.50654 16.4838 1.04978 15.3674C0.54227 14.1749 0.187011 12.5764 0.516894 11.2823C1.22741 8.56742 5.03376 10.9779 6.32792 11.8405C6.25179 11.8152 3.20671 10.4196 2.09018 11.5107C1.58267 12.0181 1.60805 12.9316 1.68417 13.5913C1.83643 14.7838 2.42007 16.5599 3.5366 17.2196C4.98301 18.0569 5.7189 15.4435 6.09953 14.5301C6.73393 12.9823 7.34294 11.4346 8.05346 9.91219C8.8401 8.23757 9.779 6.58832 11.0732 5.24355C10.794 4.9137 10.388 4.50773 10.3626 4.07639C10.3119 3.59431 10.794 3.06147 11.3015 3.3152C10.7179 2.6555 11.5045 1.66596 12.2658 2.04655C11.9106 1.48834 12.4688 0.7779 13.0525 0.803273C13.3823 0.803273 13.7122 1.08238 13.966 1.25999C14.6257 1.69133 15.2855 2.14804 15.9707 2.57938C22.2892 1.58984 27.2374 8.7704 26.6792 14.5301Z" fill="white"/>
</svg>
