<svg width="21" height="21" viewBox="0 0 21 21" fill="none" xmlns="http://www.w3.org/2000/svg">
<circle cx="10.5" cy="10.5" r="10.5" fill="#171753"/>
<path d="M13.0741 10.6178C13.0741 10.1682 13.4339 9.80847 13.8836 9.80847C14.3333 9.80847 14.693 10.1682 14.693 10.6178C14.693 11.0675 14.3333 11.4272 13.8836 11.4272C13.4339 11.4272 13.0741 11.0525 13.0741 10.6178Z" fill="white"/>
<path d="M17.9607 12.5813C17.9307 12.8361 17.9007 13.0909 17.8258 13.3307C17.6009 14.185 17.1063 14.9644 16.2968 15.3991C15.1876 15.9686 13.8684 15.7588 12.7592 15.3241C11.8448 15.9686 11.8448 15.9687 11.8448 15.9687C11.6349 16.1035 11.3651 15.8787 11.485 15.6539C11.2302 15.6989 11.1553 15.459 11.2302 15.2642C11.0204 15.4291 10.8405 15.1293 10.9604 14.9494C11.0353 14.8295 11.1553 14.6946 11.2452 14.5897C9.95607 13.8553 8.78685 12.956 7.60265 12.0717C8.27719 12.4913 10.9754 13.8703 11.6349 14.1551C12.3245 14.4548 13.014 14.7546 13.7335 14.9195C14.3331 15.0544 15.0976 15.1293 15.6522 14.7846C16.1619 14.4848 16.3568 13.8703 16.4317 13.3157C16.6116 12.1166 16.1919 10.7677 15.5623 9.74847C14.9027 8.68429 13.8235 7.72504 12.5943 7.41028C12.1446 7.29037 11.6949 7.29037 11.2752 7.36532C10.3008 7.53019 9.41643 8.12972 8.74188 8.87914C7.76754 9.95831 7.09299 11.2923 6.4784 12.6113C6.05868 13.4956 5.47408 15.6539 4.095 14.7996C3.48042 14.4099 3.09068 13.7354 2.82086 13.0759C2.52106 12.3714 2.3112 11.4272 2.50607 10.6628C2.92579 9.059 5.17428 10.4829 5.93876 10.9925C5.8938 10.9775 4.095 10.1532 3.43545 10.7977C3.13565 11.0974 3.15064 11.637 3.19561 12.0267C3.28555 12.7312 3.63031 13.7803 4.28987 14.17C5.1443 14.6647 5.57901 13.1209 5.80386 12.5813C6.1786 11.667 6.53836 10.7527 6.95808 9.85339C7.42277 8.86416 7.9774 7.88991 8.74188 7.09553C8.57699 6.90068 8.33715 6.66086 8.32217 6.40606C8.29219 6.12128 8.57699 5.80652 8.87679 5.95641C8.53202 5.56671 8.99671 4.98216 9.44641 5.20699C9.23655 4.87724 9.56633 4.45757 9.9111 4.47256C10.106 4.47256 10.3008 4.63743 10.4507 4.74235C10.8405 4.99715 11.2302 5.26694 11.6349 5.52175C15.3674 4.9372 18.2905 9.17891 17.9607 12.5813Z" fill="white"/>
</svg>
